<svg xmlns="http://www.w3.org/2000/svg" viewBox="0 0 130.115 130.116" height="491.776" width="491.774"><path d="m180.155 62.18-.715-2.64a1.02 1.02 0 0 0-1.691-.467l-2.8 2.7a4.78 4.78 0 0 1-3.318 1.34h-2.576a2.758 2.758 0 0 1-2.548-1.703l-12.136-29.297a2.758 2.758 0 0 1 .599-3.007l1.82-1.82a4.78 4.78 0 0 1 3.295-1.4l3.888-.07a1.019 1.019 0 0 0 .866-1.526l-1.362-2.372a11.014 11.014 0 0 0-4.07-4.07l-2.372-1.361a1.019 1.019 0 0 0-1.526.865l-.07 3.888a4.781 4.781 0 0 1-1.399 3.295l-1.82 1.82a2.759 2.759 0 0 1-3.007.599l-29.298-12.136a2.758 2.758 0 0 1-1.703-2.548V9.694a4.78 4.78 0 0 1 1.34-3.319l2.7-2.798a1.019 1.019 0 0 0-.467-1.691l-2.64-.715a11.016 11.016 0 0 0-5.756 0l-2.639.715a1.019 1.019 0 0 0-.467 1.69l2.7 2.799a4.78 4.78 0 0 1 1.34 3.32v2.575a2.758 2.758 0 0 1-1.703 2.548L83.322 26.954a2.76 2.76 0 0 1-3.006-.598l-1.821-1.821a4.778 4.778 0 0 1-1.4-3.293l-.07-3.89a1.019 1.019 0 0 0-1.525-.865l-2.373 1.36a11.01 11.01 0 0 0-4.069 4.07l-1.362 2.373c-.385.672.09 1.512.866 1.526l3.888.07a4.78 4.78 0 0 1 3.294 1.399l1.822 1.821a2.758 2.758 0 0 1 .598 3.007L66.028 61.41a2.759 2.759 0 0 1-2.549 1.703h-2.575a4.78 4.78 0 0 1-3.32-1.34l-2.798-2.7a1.02 1.02 0 0 0-1.69.467l-.715 2.64a11.013 11.013 0 0 0 0 5.755l.714 2.64a1.02 1.02 0 0 0 1.691.468l2.799-2.7a4.78 4.78 0 0 1 3.319-1.34h2.575c1.116 0 2.122.672 2.549 1.702l12.136 29.298a2.758 2.758 0 0 1-.598 3.007l-1.822 1.82a4.78 4.78 0 0 1-3.294 1.4l-3.888.07a1.019 1.019 0 0 0-.866 1.526l1.362 2.372a11.013 11.013 0 0 0 4.07 4.07l2.372 1.361a1.02 1.02 0 0 0 1.526-.865l.07-3.89a4.779 4.779 0 0 1 1.399-3.293l1.821-1.821a2.76 2.76 0 0 1 3.006-.598l29.298 12.135a2.76 2.76 0 0 1 1.703 2.55v2.576c0 1.237-.48 2.427-1.34 3.317l-2.7 2.799a1.02 1.02 0 0 0 .467 1.691l2.639.715c1.885.51 3.871.51 5.756 0l2.64-.715a1.02 1.02 0 0 0 .468-1.691l-2.701-2.799a4.78 4.78 0 0 1-1.34-3.319v-2.575a2.76 2.76 0 0 1 1.703-2.549l29.298-12.135a2.76 2.76 0 0 1 3.006.598l1.821 1.821a4.782 4.782 0 0 1 1.4 3.295l.07 3.888a1.019 1.019 0 0 0 1.525.865l2.372-1.36a11.017 11.017 0 0 0 4.07-4.071l1.362-2.372a1.019 1.019 0 0 0-.866-1.526l-3.888-.07a4.779 4.779 0 0 1-3.294-1.4l-1.821-1.82a2.758 2.758 0 0 1-.598-3.007l12.135-29.298a2.758 2.758 0 0 1 2.548-1.702h2.576c1.238 0 2.428.48 3.319 1.34l2.799 2.7a1.02 1.02 0 0 0 1.691-.467l.715-2.64c.51-1.885.51-3.871 0-5.756z" style="fill:none;stroke:#69ae23;stroke-width:1.57634509;stroke-linecap:butt;stroke-linejoin:miter;stroke-miterlimit:10;stroke-dasharray:none;stroke-opacity:1" transform="translate(-51.21)"/><path d="M141.977 50.787a7.45 7.45 0 0 0 2.276 5.363L133.26 71.62a9.25 9.25 0 0 0-4.426-1.122 9.25 9.25 0 0 0-5.646 1.916l-5.072-5.176a11.343 11.343 0 0 0 2.662-7.318c0-6.294-5.122-11.414-11.417-11.414-6.292 0-11.414 5.12-11.414 11.414 0 2.353.717 4.543 1.942 6.363l-8.141 6.732a9.334 9.334 0 0 0-6.432-2.567c-5.161 0-9.358 4.197-9.358 9.358v.048l-5.691-13.74a2.756 2.756 0 0 1 0-2.11l12.726-30.726a2.762 2.762 0 0 1 1.493-1.493l30.723-12.726a2.764 2.764 0 0 1 2.112 0l30.727 12.726c.675.28 1.21.818 1.493 1.493l4.968 11.997a7.448 7.448 0 0 0-5.051-1.969c-4.126 0-7.482 3.356-7.482 7.482" style="fill:none;fill-opacity:1;fill-rule:nonzero;stroke:none;stroke-width:.02974757" transform="translate(-51.21)"/><path d="M141.977 50.787a7.45 7.45 0 0 0 2.276 5.363L133.26 71.62a9.25 9.25 0 0 0-4.426-1.122 9.25 9.25 0 0 0-5.646 1.916l-5.072-5.176a11.343 11.343 0 0 0 2.662-7.318c0-6.294-5.122-11.414-11.417-11.414-6.292 0-11.414 5.12-11.414 11.414 0 2.353.717 4.543 1.942 6.363l-8.141 6.732a9.334 9.334 0 0 0-6.432-2.567c-5.161 0-9.358 4.197-9.358 9.358v.048l-5.691-13.74a2.756 2.756 0 0 1 0-2.11l12.726-30.726a2.762 2.762 0 0 1 1.493-1.493l30.723-12.726a2.764 2.764 0 0 1 2.112 0l30.727 12.726c.675.28 1.21.818 1.493 1.493l4.968 11.997a7.448 7.448 0 0 0-5.051-1.969c-4.126 0-7.482 3.356-7.482 7.482z" style="fill:none;stroke:#69ae23;stroke-width:1.57634509;stroke-linecap:butt;stroke-linejoin:miter;stroke-miterlimit:10;stroke-dasharray:none;stroke-opacity:1" transform="translate(-51.21)"/><path d="m162.268 66.113-12.726 30.726a2.782 2.782 0 0 1-1.493 1.493l-30.727 12.726c-.675.28-1.433.28-2.112 0L84.487 98.332a2.772 2.772 0 0 1-1.493-1.493l-4.328-10.457a9.326 9.326 0 0 0 6.651 2.782c5.158 0 9.356-4.198 9.356-9.359a9.323 9.323 0 0 0-1.479-5.045l8.142-6.735a11.364 11.364 0 0 0 8.026 3.308c2.695 0 5.179-.94 7.133-2.507l5.072 5.176a9.251 9.251 0 0 0-2.04 5.803c0 5.132 4.176 9.308 9.308 9.308 5.134 0 9.308-4.176 9.308-9.308a9.277 9.277 0 0 0-3.035-6.868L146.1 57.465c1.012.512 2.15.8 3.359.8 4.013 0 7.3-3.18 7.47-7.151l5.339 12.89c.28.675.28 1.433 0 2.109" style="fill:#69ae23;fill-opacity:1;fill-rule:nonzero;stroke:none;stroke-width:.02974757" transform="translate(-51.21)"/><path d="M154.67 50.787a5.218 5.218 0 0 1-7.237 4.804 5.144 5.144 0 0 1-.99-.56 4.813 4.813 0 0 1-.854-.758 5.165 5.165 0 0 1-1.345-3.486 5.22 5.22 0 0 1 5.215-5.215 5.211 5.211 0 0 1 4.608 2.784c.386.726.603 1.553.603 2.43M135.879 79.805c0 3.882-3.16 7.042-7.044 7.042-3.882 0-7.042-3.16-7.042-7.042a7.001 7.001 0 0 1 2.119-5.027c.27-.268.565-.512.877-.729a6.973 6.973 0 0 1 4.046-1.285c1.112 0 2.165.259 3.102.72.342.167.667.363.973.586.312.214.604.461.875.729a7.033 7.033 0 0 1 2.094 5.006M118.512 59.92a9.089 9.089 0 0 1-1.99 5.687c-.238.3-.49.583-.764.845a9.114 9.114 0 0 1-6.396 2.615 9.114 9.114 0 0 1-6.268-2.493 8.82 8.82 0 0 1-1.446-1.746 9.08 9.08 0 0 1-1.433-4.909c0-5.045 4.105-9.15 9.147-9.15 5.045 0 9.15 4.105 9.15 9.15M92.409 79.805c0 3.91-3.183 7.092-7.092 7.092a7.077 7.077 0 0 1-5.462-2.573 7.05 7.05 0 0 1-1.63-4.519c0-3.909 3.18-7.091 7.092-7.091 1.785 0 3.418.666 4.667 1.758.286.25.554.523.798.815a7.06 7.06 0 0 1 1.627 4.519" style="fill:#69ae23;fill-opacity:1;fill-rule:nonzero;stroke:none;stroke-width:.02974757" transform="translate(-51.21)"/></svg>