<svg xmlns="http://www.w3.org/2000/svg" viewBox="0 0 270.933 270.933" height="1024" width="1024"><path style="fill:none;stroke:#69ae23;stroke-width:1.83934999;stroke-linecap:butt;stroke-linejoin:miter;stroke-miterlimit:10;stroke-dasharray:none;stroke-opacity:1" d="m207.49 72.554-.834-3.08a1.19 1.19 0 0 0-1.974-.545l-3.266 3.15a5.577 5.577 0 0 1-3.872 1.564h-3.005a3.218 3.218 0 0 1-2.974-1.987l-14.16-34.186a3.218 3.218 0 0 1 .698-3.508l2.125-2.124a5.577 5.577 0 0 1 3.844-1.634l4.536-.08a1.189 1.189 0 0 0 1.01-1.781l-1.588-2.768a12.851 12.851 0 0 0-4.75-4.75l-2.767-1.587a1.189 1.189 0 0 0-1.78 1.01l-.082 4.536a5.58 5.58 0 0 1-1.633 3.844l-2.124 2.125a3.219 3.219 0 0 1-3.509.698L137.2 17.291a3.218 3.218 0 0 1-1.987-2.974v-3.005c0-1.445.56-2.833 1.564-3.873l3.15-3.265a1.189 1.189 0 0 0-.544-1.974l-3.081-.834a12.854 12.854 0 0 0-6.717 0l-3.079.834a1.189 1.189 0 0 0-.545 1.974l3.15 3.264a5.579 5.579 0 0 1 1.564 3.874v3.005a3.219 3.219 0 0 1-1.987 2.974L94.501 31.45a3.22 3.22 0 0 1-3.508-.697l-2.125-2.126a5.575 5.575 0 0 1-1.632-3.842l-.082-4.539a1.189 1.189 0 0 0-1.78-1.01l-2.768 1.589a12.847 12.847 0 0 0-4.749 4.748l-1.589 2.769a1.189 1.189 0 0 0 1.01 1.78l4.537.081a5.578 5.578 0 0 1 3.844 1.633l2.125 2.125c.921.92 1.197 2.305.698 3.508l-14.16 34.186a3.22 3.22 0 0 1-2.974 1.987h-3.006a5.578 5.578 0 0 1-3.872-1.563l-3.266-3.15a1.19 1.19 0 0 0-1.973.544l-.834 3.08a12.85 12.85 0 0 0 0 6.716l.834 3.08a1.19 1.19 0 0 0 1.973.546l3.266-3.15a5.578 5.578 0 0 1 3.872-1.564h3.006a3.22 3.22 0 0 1 2.974 1.986l14.16 34.187a3.218 3.218 0 0 1-.698 3.508l-2.125 2.125a5.578 5.578 0 0 1-3.844 1.632l-4.536.082a1.189 1.189 0 0 0-1.01 1.78l1.588 2.769a12.85 12.85 0 0 0 4.749 4.748l2.767 1.589a1.19 1.19 0 0 0 1.781-1.01l.082-4.539a5.576 5.576 0 0 1 1.632-3.842l2.125-2.126a3.22 3.22 0 0 1 3.508-.697l34.186 14.16a3.22 3.22 0 0 1 1.987 2.974v3.007c0 1.444-.56 2.832-1.563 3.87l-3.15 3.266a1.19 1.19 0 0 0 .544 1.974l3.08.833c2.199.596 4.517.596 6.716 0l3.08-.833a1.19 1.19 0 0 0 .546-1.974l-3.151-3.265a5.577 5.577 0 0 1-1.564-3.873v-3.005a3.22 3.22 0 0 1 1.987-2.974l34.186-14.16a3.22 3.22 0 0 1 3.508.698l2.125 2.125a5.58 5.58 0 0 1 1.633 3.844l.081 4.537c.017.904.997 1.46 1.781 1.01L183.28 131a12.855 12.855 0 0 0 4.75-4.75l1.588-2.768a1.189 1.189 0 0 0-1.01-1.78l-4.536-.082a5.576 5.576 0 0 1-3.844-1.632l-2.125-2.125a3.218 3.218 0 0 1-.698-3.508l14.16-34.187a3.218 3.218 0 0 1 2.974-1.986h3.005c1.444 0 2.833.56 3.873 1.563l3.265 3.151a1.19 1.19 0 0 0 1.974-.545l.834-3.08a12.858 12.858 0 0 0 0-6.717z" transform="translate(15.647) scale(.85701)"/><path style="fill:none;fill-opacity:1;fill-rule:nonzero;stroke:none;stroke-width:.0347108" d="M162.942 59.26a8.692 8.692 0 0 0 2.656 6.258l-12.826 18.05a10.794 10.794 0 0 0-5.165-1.309c-2.475 0-4.759.833-6.588 2.236l-5.918-6.04a13.235 13.235 0 0 0 3.107-8.539c0-7.345-5.978-13.318-13.322-13.318-7.342 0-13.319 5.973-13.319 13.318 0 2.746.837 5.3 2.267 7.425l-9.5 7.855a10.892 10.892 0 0 0-7.505-2.996c-6.022 0-10.92 4.898-10.92 10.92v.056l-6.64-16.033a3.216 3.216 0 0 1 0-2.461l14.85-35.853a3.223 3.223 0 0 1 1.742-1.742l35.849-14.85a3.225 3.225 0 0 1 2.464 0l35.853 14.85a3.234 3.234 0 0 1 1.742 1.742l5.797 14a8.69 8.69 0 0 0-5.894-2.299c-4.814 0-8.73 3.916-8.73 8.73" transform="translate(15.647) scale(.85701)"/><path style="fill:none;stroke:#69ae23;stroke-width:1.83934999;stroke-linecap:butt;stroke-linejoin:miter;stroke-miterlimit:10;stroke-dasharray:none;stroke-opacity:1" d="M162.942 59.26a8.692 8.692 0 0 0 2.656 6.258l-12.826 18.05a10.794 10.794 0 0 0-5.165-1.309c-2.475 0-4.759.833-6.588 2.236l-5.918-6.04a13.235 13.235 0 0 0 3.107-8.539c0-7.345-5.978-13.318-13.322-13.318-7.342 0-13.319 5.973-13.319 13.318 0 2.746.837 5.3 2.267 7.425l-9.5 7.855a10.892 10.892 0 0 0-7.505-2.996c-6.022 0-10.92 4.898-10.92 10.92v.056l-6.64-16.033a3.216 3.216 0 0 1 0-2.461l14.85-35.853a3.223 3.223 0 0 1 1.742-1.742l35.849-14.85a3.225 3.225 0 0 1 2.464 0l35.853 14.85a3.234 3.234 0 0 1 1.742 1.742l5.797 14a8.69 8.69 0 0 0-5.894-2.299c-4.814 0-8.73 3.916-8.73 8.73z" transform="translate(15.647) scale(.85701)"/><path style="fill:#69ae23;fill-opacity:1;fill-rule:nonzero;stroke:none;stroke-width:.0347108" d="m186.619 77.143-14.85 35.853a3.246 3.246 0 0 1-1.742 1.742l-35.853 14.85a3.225 3.225 0 0 1-2.464 0l-35.85-14.85a3.235 3.235 0 0 1-1.742-1.742l-5.05-12.201a10.882 10.882 0 0 0 7.761 3.245c6.019 0 10.917-4.897 10.917-10.92 0-2.165-.636-4.186-1.726-5.887l9.5-7.858a13.26 13.26 0 0 0 9.366 3.86c3.144 0 6.043-1.097 8.323-2.926l5.918 6.04a10.795 10.795 0 0 0-2.38 6.771c0 5.988 4.873 10.861 10.86 10.861 5.991 0 10.861-4.873 10.861-10.86 0-3.17-1.364-6.03-3.54-8.015l12.825-18.053c1.18.597 2.51.933 3.92.933 4.682 0 8.517-3.71 8.715-8.344l6.23 15.04a3.216 3.216 0 0 1 0 2.461" transform="translate(15.647) scale(.85701)"/><path style="fill:#69ae23;fill-opacity:1;fill-rule:nonzero;stroke:none;stroke-width:.0347108" d="M177.754 59.26a6.088 6.088 0 0 1-8.446 5.606 6.002 6.002 0 0 1-1.155-.653 5.615 5.615 0 0 1-.997-.885 6.026 6.026 0 0 1-1.569-4.068 6.09 6.09 0 0 1 6.085-6.085 6.08 6.08 0 0 1 5.377 3.25 6.01 6.01 0 0 1 .705 2.835M155.827 93.12c0 4.53-3.687 8.216-8.22 8.216-4.53 0-8.216-3.686-8.216-8.216a8.17 8.17 0 0 1 2.472-5.866c.316-.312.66-.597 1.024-.85a8.136 8.136 0 0 1 4.72-1.5c1.298 0 2.527.302 3.62.84.4.195.778.424 1.136.684.364.25.704.538 1.02.85a8.207 8.207 0 0 1 2.444 5.842M135.563 69.916c0 2.506-.868 4.815-2.322 6.637a9.64 9.64 0 0 1-.893.986 10.635 10.635 0 0 1-7.463 3.051 10.635 10.635 0 0 1-7.313-2.909 10.293 10.293 0 0 1-1.687-2.038 10.596 10.596 0 0 1-1.673-5.727c0-5.887 4.79-10.677 10.674-10.677 5.887 0 10.677 4.79 10.677 10.677M105.104 93.12c0 4.561-3.714 8.275-8.275 8.275a8.258 8.258 0 0 1-6.373-3.002 8.226 8.226 0 0 1-1.902-5.273c0-4.56 3.71-8.275 8.275-8.275 2.083 0 3.988.778 5.446 2.052.333.291.646.61.93.95.281.341.535.705.76 1.087a8.237 8.237 0 0 1 1.139 4.186" transform="translate(15.647) scale(.85701)"/><g style="fill:#003a80;fill-opacity:1"><path style="fill:#003a80;fill-opacity:1;fill-rule:nonzero;stroke:none;stroke-width:.0352778" d="M161.815 221.203a13.735 13.735 0 0 1-2.02 2.371 13.14 13.14 0 0 1-2.74 1.967 15.296 15.296 0 0 1-3.438 1.345c-1.254.33-2.625.495-4.11.495-2.479 0-4.77-.434-6.875-1.3-2.107-.868-3.918-2.068-5.435-3.6-1.518-1.533-2.702-3.352-3.553-5.458-.853-2.106-1.278-4.413-1.278-6.922 0-2.508.433-4.815 1.3-6.921.867-2.105 2.067-3.925 3.6-5.458 1.533-1.533 3.345-2.732 5.435-3.6 2.09-.866 4.358-1.3 6.805-1.3 1.208 0 2.392.126 3.554.377 1.16.252 2.252.606 3.274 1.062a13.932 13.932 0 0 1 2.787 1.643 9.649 9.649 0 0 1 2.09 2.167l-2.787 2.044c-.34-.527-.797-1.053-1.37-1.58a9.373 9.373 0 0 0-2.02-1.394 12.744 12.744 0 0 0-2.532-.975 11.244 11.244 0 0 0-2.95-.371c-2.136 0-4.048.386-5.736 1.157-1.688.773-3.12 1.814-4.297 3.126-1.177 1.312-2.075 2.832-2.694 4.56-.62 1.73-.929 3.55-.929 5.463 0 1.914.317 3.735.952 5.464.635 1.729 1.54 3.249 2.718 4.56 1.176 1.312 2.608 2.354 4.296 3.126 1.688.771 3.584 1.157 5.69 1.157 1.89 0 3.686-.387 5.389-1.161 1.703-.774 3.127-2.013 4.273-3.716l2.601 1.672M196.003 210.125c0-1.917-.31-3.741-.93-5.473-.62-1.731-1.517-3.254-2.693-4.567-1.178-1.314-2.61-2.358-4.297-3.13-1.688-.773-3.585-1.16-5.69-1.16-2.107 0-4.003.387-5.69 1.16-1.689.772-3.12 1.816-4.297 3.13-1.178 1.313-2.075 2.836-2.694 4.567a16.113 16.113 0 0 0-.93 5.473c0 1.917.31 3.741.93 5.472.619 1.732 1.516 3.247 2.694 4.545 1.176 1.298 2.608 2.334 4.297 3.107 1.687.773 3.583 1.159 5.69 1.159 2.105 0 4.002-.386 5.69-1.16 1.687-.772 3.12-1.808 4.297-3.106 1.176-1.298 2.074-2.813 2.693-4.545.62-1.731.93-3.555.93-5.472zm3.53-.024c0 2.509-.434 4.816-1.3 6.922-.868 2.106-2.068 3.925-3.6 5.457-1.534 1.533-3.345 2.733-5.435 3.6-2.09.867-4.36 1.3-6.805 1.3-2.447 0-4.715-.433-6.806-1.3-2.09-.867-3.901-2.067-5.434-3.6-1.533-1.532-2.733-3.351-3.6-5.457s-1.3-4.413-1.3-6.922c0-2.508.433-4.815 1.3-6.921.867-2.105 2.067-3.925 3.6-5.458 1.533-1.533 3.345-2.732 5.434-3.6 2.091-.866 4.359-1.3 6.806-1.3 2.446 0 4.714.434 6.805 1.3 2.09.868 3.901 2.067 5.434 3.6 1.533 1.533 2.733 3.353 3.6 5.458.867 2.106 1.3 4.413 1.3 6.921M216.022 222.225h.093l10.684-28.567h3.577l-12.589 32.887h-3.53l-12.541-32.887h3.623l10.683 28.567M238.225 226.545h-3.344v-32.887h3.344v32.887M250.302 223.572h6.642c2.478 0 4.637-.387 6.48-1.161 1.84-.774 3.368-1.789 4.575-3.043a12.38 12.38 0 0 0 2.716-4.297c.607-1.61.907-3.266.907-4.97 0-1.702-.3-3.36-.907-4.97a12.385 12.385 0 0 0-2.716-4.296c-1.207-1.255-2.734-2.269-4.575-3.043-1.843-.774-4.002-1.161-6.48-1.161h-6.642zm-3.344-29.914h10.915c2.044 0 4.095.34 6.153 1.022 2.06.681 3.92 1.711 5.574 3.09 1.658 1.377 2.999 3.096 4.018 5.155 1.023 2.06 1.535 4.452 1.535 7.176 0 2.757-.512 5.156-1.535 7.2-1.02 2.044-2.36 3.755-4.018 5.133a16.931 16.931 0 0 1-5.574 3.089c-2.058.681-4.11 1.022-6.153 1.022h-10.915v-32.887M290.668 216.604h-10.407v-2.647h10.407v2.647M309.524 226.545h-3.344v-28.753l-5.945 5.063-2.046-2.322 8.365-6.875h2.97v32.887M340.738 203.18a8.23 8.23 0 0 0-.533-2.973 6.95 6.95 0 0 0-1.51-2.392 7.194 7.194 0 0 0-2.321-1.58c-.9-.386-1.89-.58-2.974-.58-1.083 0-2.074.194-2.974.58-.9.388-1.672.915-2.321 1.58a6.899 6.899 0 0 0-1.51 2.392 8.232 8.232 0 0 0-.536 2.973c0 1.053.173 2.037.511 2.95a6.875 6.875 0 0 0 1.464 2.369 6.583 6.583 0 0 0 2.322 1.556c.913.371 1.93.557 3.044.557 1.115 0 2.127-.186 3.041-.557a6.598 6.598 0 0 0 2.325-1.556 6.815 6.815 0 0 0 1.46-2.37 8.338 8.338 0 0 0 .512-2.949zm-3.203 9.011-.096-.092c-.494.371-1.192.666-2.088.883-.9.217-1.764.324-2.6.324-1.425 0-2.752-.247-3.972-.743a9.618 9.618 0 0 1-3.182-2.067c-.9-.882-1.602-1.951-2.114-3.205-.511-1.254-.765-2.624-.765-4.111 0-1.517.261-2.918.787-4.204.525-1.284 1.27-2.376 2.23-3.274.959-.898 2.091-1.603 3.39-2.114 1.301-.51 2.726-.766 4.275-.766 1.549 0 2.974.255 4.272.766 1.302.511 2.43 1.216 3.39 2.114.96.898 1.704 1.99 2.23 3.274.53 1.286.79 2.687.79 4.204 0 1.704-.293 3.283-.882 4.738a29.382 29.382 0 0 1-2.088 4.18l-8.968 14.447h-3.856l9.247-14.354M-100.665 242.014h35.784v8.613H-90.8v15.19h24.43v8.3h-24.43v23.335h-9.866v-55.438M-52.665 278.503c0 1.462.221 2.923.666 4.385a12.023 12.023 0 0 0 1.996 3.914c.887 1.15 2.01 2.089 3.367 2.82 1.357.731 2.976 1.096 4.855 1.096 1.88 0 3.497-.365 4.855-1.097 1.356-.73 2.478-1.67 3.367-2.819a12.077 12.077 0 0 0 1.996-3.914c.443-1.462.666-2.923.666-4.385 0-1.461-.223-2.91-.666-4.346a12.172 12.172 0 0 0-1.996-3.876c-.889-1.147-2.01-2.075-3.367-2.78-1.358-.705-2.976-1.057-4.855-1.057-1.88 0-3.498.352-4.855 1.057-1.358.705-2.48 1.633-3.367 2.78a12.116 12.116 0 0 0-1.996 3.876 14.636 14.636 0 0 0-.666 4.346zm-9.553 0c0-2.976.535-5.678 1.606-8.105 1.069-2.427 2.517-4.502 4.345-6.225 1.827-1.722 3.993-3.054 6.5-3.993 2.505-.94 5.167-1.41 7.986-1.41s5.481.47 7.987 1.41c2.505.94 4.671 2.27 6.499 3.993 1.827 1.723 3.275 3.798 4.346 6.225 1.069 2.427 1.605 5.13 1.605 8.105 0 2.975-.536 5.69-1.605 8.143-1.07 2.454-2.52 4.555-4.346 6.303-1.828 1.75-3.994 3.12-6.499 4.111-2.506.991-5.168 1.488-7.987 1.488s-5.481-.497-7.987-1.488c-2.506-.99-4.672-2.361-6.499-4.11-1.828-1.75-3.276-3.85-4.345-6.304-1.071-2.453-1.606-5.168-1.606-8.143M-12.262 259.867h9.004v6.264h.157c1.044-2.192 2.506-3.967 4.385-5.325 1.88-1.357 4.072-2.035 6.577-2.035.365 0 .757.013 1.175.038.417.027.783.093 1.096.196v8.614a13.15 13.15 0 0 0-1.605-.314 11.226 11.226 0 0 0-1.292-.078c-2.141 0-3.864.392-5.168 1.175-1.305.783-2.323 1.722-3.054 2.819-.731 1.096-1.227 2.219-1.487 3.366-.262 1.15-.392 2.063-.392 2.74v20.125h-9.396v-37.585M41.297 274.9c0-1.2-.17-2.348-.508-3.444a7.938 7.938 0 0 0-1.606-2.898c-.73-.835-1.658-1.5-2.78-1.997-1.121-.495-2.44-.744-3.954-.744-2.819 0-5.207.85-7.165 2.545-1.957 1.698-3.041 3.876-3.25 6.539zm9.398 4.23v1.252c0 .418-.029.835-.082 1.253H22.035c.104 1.358.456 2.597 1.057 3.719a9.444 9.444 0 0 0 2.388 2.897 11.85 11.85 0 0 0 3.367 1.918c1.252.47 2.558.705 3.916.705 2.35 0 4.332-.43 5.951-1.292a11.188 11.188 0 0 0 3.994-3.562l6.261 5.011c-3.704 5.011-9.08 7.517-16.129 7.517-2.924 0-5.612-.457-8.065-1.37-2.454-.913-4.58-2.205-6.381-3.876-1.801-1.67-3.21-3.72-4.229-6.147-1.017-2.427-1.526-5.18-1.526-8.26 0-3.028.509-5.782 1.526-8.262 1.019-2.479 2.415-4.593 4.19-6.342 1.774-1.749 3.876-3.106 6.303-4.072 2.427-.965 5.05-1.448 7.868-1.448 2.611 0 5.024.43 7.243 1.292a15.727 15.727 0 0 1 5.757 3.836c1.616 1.697 2.883 3.811 3.796 6.343.914 2.532 1.373 5.494 1.373 8.887M85.457 270.28c-.73-1.043-1.827-1.918-3.288-2.622-1.46-.705-2.949-1.057-4.462-1.057-1.722 0-3.239.352-4.54 1.057a9.857 9.857 0 0 0-3.25 2.78 11.897 11.897 0 0 0-1.919 3.875 15.415 15.415 0 0 0-.628 4.346c0 1.462.223 2.91.667 4.346a12.043 12.043 0 0 0 1.997 3.876 10.127 10.127 0 0 0 3.327 2.78c1.33.704 2.885 1.057 4.66 1.057 1.46 0 2.92-.287 4.385-.862 1.46-.573 2.635-1.409 3.524-2.505l5.87 5.95c-1.566 1.672-3.563 2.964-5.99 3.877-2.427.913-5.048 1.37-7.867 1.37-2.77 0-5.39-.444-7.87-1.331-2.48-.887-4.646-2.193-6.499-3.915-1.855-1.723-3.316-3.81-4.385-6.265-1.072-2.453-1.605-5.246-1.605-8.378 0-3.027.533-5.767 1.605-8.222 1.07-2.452 2.516-4.54 4.347-6.264 1.824-1.722 3.95-3.054 6.381-3.993 2.428-.94 5.024-1.41 7.79-1.41s5.443.523 8.025 1.566c2.586 1.045 4.632 2.48 6.15 4.307l-6.425 5.638M121.165 280.304h-2.116c-1.514 0-3.105.066-4.777.195-1.668.131-3.21.419-4.618.862-1.41.444-2.586 1.07-3.524 1.88-.938.809-1.411 1.917-1.411 3.326 0 .889.197 1.633.59 2.232.39.601.899 1.084 1.527 1.449.624.366 1.33.626 2.113.783a11.98 11.98 0 0 0 2.35.235c3.234 0 5.69-.862 7.358-2.584 1.672-1.723 2.508-4.072 2.508-7.047zm.156 12.371h-.237c-.938 1.672-2.452 3.042-4.54 4.111-2.088 1.07-4.463 1.605-7.126 1.605-1.513 0-3.094-.196-4.738-.587a14.09 14.09 0 0 1-4.54-1.957c-1.383-.913-2.533-2.115-3.447-3.603-.913-1.487-1.369-3.327-1.369-5.52 0-2.819.794-5.063 2.389-6.734 1.59-1.67 3.64-2.948 6.145-3.837 2.505-.887 5.285-1.474 8.34-1.761a96.04 96.04 0 0 1 8.967-.431v-.94c0-2.349-.85-4.084-2.547-5.207-1.696-1.121-3.718-1.683-6.067-1.683-1.987 0-3.892.418-5.715 1.253-1.828.835-3.341 1.853-4.544 3.053l-4.854-5.716a21.229 21.229 0 0 1 7.4-4.463c2.791-.991 5.624-1.487 8.496-1.487 3.34 0 6.092.47 8.262 1.409 2.166.94 3.873 2.166 5.126 3.68a13.154 13.154 0 0 1 2.624 5.09c.494 1.879.745 3.758.745 5.637v22.865h-8.77v-4.777M161.647 269.89c-.836-1.097-1.986-2.049-3.447-2.859-1.46-.808-3.055-1.214-4.777-1.214-1.513 0-2.896.314-4.148.94-1.256.627-1.88 1.671-1.88 3.132 0 1.462.69 2.494 2.074 3.093 1.383.601 3.408 1.214 6.068 1.84 1.41.313 2.832.732 4.268 1.253a15.609 15.609 0 0 1 3.916 2.075 10.221 10.221 0 0 1 2.858 3.21c.73 1.28 1.097 2.833 1.097 4.66 0 2.297-.43 4.241-1.295 5.833-.86 1.593-2.007 2.885-3.443 3.876-1.436.992-3.108 1.71-5.013 2.153a25.992 25.992 0 0 1-5.91.666c-2.924 0-5.77-.536-8.536-1.605-2.766-1.07-5.063-2.596-6.89-4.581l6.184-5.795c1.044 1.359 2.402 2.48 4.075 3.368 1.668.888 3.52 1.33 5.556 1.33.68 0 1.372-.078 2.078-.234a7.118 7.118 0 0 0 1.958-.744 4.022 4.022 0 0 0 1.446-1.37c.367-.574.55-1.279.55-2.115 0-1.566-.72-2.687-2.155-3.366-1.436-.678-3.588-1.357-6.46-2.036a30.965 30.965 0 0 1-4.11-1.214 13.355 13.355 0 0 1-3.562-1.957 9.03 9.03 0 0 1-2.505-3.015c-.628-1.2-.942-2.688-.942-4.463 0-2.087.43-3.889 1.291-5.403a11.12 11.12 0 0 1 3.408-3.72c1.411-.965 3.002-1.683 4.777-2.153a21.324 21.324 0 0 1 5.482-.704c2.713 0 5.362.47 7.944 1.409 2.586.94 4.636 2.376 6.15 4.307l-6.107 5.402M170.413 267.384v-7.517h6.58v-10.884h9.239v10.884h9.394v7.517h-9.394v17.461c0 1.671.3 3.054.9 4.15.6 1.096 1.943 1.644 4.032 1.644.628 0 1.305-.064 2.035-.195a8.165 8.165 0 0 0 1.958-.588l.314 7.36c-.836.314-1.827.561-2.977.744a20.92 20.92 0 0 1-3.288.275c-2.505 0-4.54-.353-6.107-1.057-1.566-.705-2.808-1.67-3.718-2.897-.914-1.227-1.542-2.636-1.88-4.23-.34-1.59-.508-3.3-.508-5.128v-17.54h-6.58M204.163 242.014h5.638v24.038h30.222v-24.038h5.638v55.438h-5.638V271.22h-30.222v26.23h-5.638v-55.437" transform="translate(93.023 75.002) scale(.31814)"/><path style="fill:#003a80;fill-opacity:1;fill-rule:nonzero;stroke:none;stroke-width:.0378742" d="M286.692 297.452a53.086 53.086 0 0 1-.238-3.289 75.54 75.54 0 0 1-.076-2.975h-.155c-1.05 2.14-2.743 3.875-5.09 5.207-2.349 1.331-4.83 1.996-7.443 1.996-4.643 0-8.128-1.382-10.45-4.15-2.321-2.766-3.488-6.42-3.488-10.962v-22.473h5.33v20.28c0 1.933.154 3.68.469 5.247.314 1.566.844 2.91 1.606 4.032.753 1.124 1.772 1.997 3.052 2.624 1.277.626 2.883.94 4.818.94 1.405 0 2.78-.287 4.11-.862 1.329-.574 2.518-1.449 3.56-2.623 1.045-1.175 1.878-2.663 2.507-4.464.628-1.8.939-3.927.939-6.381v-18.793h5.325v28.58c0 .993.027 2.271.08 3.838.053 1.565.128 2.975.23 4.228h-5.086" transform="translate(93.023 75.002) scale(.31814)"/><path style="fill:#003a80;fill-opacity:1;fill-rule:nonzero;stroke:none;stroke-width:.0410785" d="M338.372 279.13c0-2.037-.316-3.955-.94-5.756-.629-1.801-1.528-3.368-2.703-4.699-1.175-1.33-2.625-2.388-4.346-3.17-1.721-.784-3.677-1.175-5.875-1.175-2.033 0-3.914.38-5.636 1.135a13.544 13.544 0 0 0-4.46 3.132c-1.254 1.331-2.235 2.898-2.938 4.698-.706 1.801-1.055 3.747-1.055 5.834 0 2.088.349 4.032 1.055 5.834.703 1.8 1.684 3.354 2.937 4.658a13.804 13.804 0 0 0 4.461 3.093c1.722.758 3.603 1.136 5.636 1.136 2.198 0 4.154-.378 5.875-1.136 1.72-.756 3.171-1.8 4.346-3.132 1.175-1.33 2.074-2.897 2.703-4.698.624-1.8.94-3.72.94-5.755zm-27.33 12.136v6.186h-5.323v-59.197h5.324v28.894h.156c1.57-2.401 3.603-4.215 6.108-5.442 2.506-1.227 5.09-1.84 7.752-1.84 2.871 0 5.467.496 7.793 1.487 2.32.993 4.305 2.35 5.948 4.072 1.647 1.723 2.924 3.758 3.84 6.107.908 2.35 1.368 4.882 1.368 7.596 0 2.715-.46 5.246-1.367 7.596-.917 2.348-2.194 4.384-3.841 6.107-1.643 1.722-3.628 3.08-5.948 4.071-2.326.992-4.922 1.488-7.793 1.488-2.662 0-5.246-.6-7.752-1.8-2.505-1.2-4.539-2.976-6.108-5.325h-.156" transform="translate(93.023 75.002) scale(.31814)"/><text y="227.289" x="-105.242" style="font-style:normal;font-weight:400;font-size:48.68330002px;line-height:1.25;font-family:sans-serif;fill:#003a80;fill-opacity:1;stroke:none;stroke-width:.26458299" xml:space="preserve" transform="translate(93.023 75.002) scale(.31814)"><tspan style="font-style:normal;font-variant:normal;font-weight:400;font-stretch:normal;font-size:48.68330002px;font-family:'Avenir Next';-inkscape-font-specification:'Avenir Next';fill:#003a80;fill-opacity:1;stroke-width:.26458299" y="227.289" x="-105.242">European</tspan></text></g><path d="M144.561 198.738c-8.147-2.273-6.71-17.107-14.331-16.732-3.967 1.528-6.333-.36-3.653 4.35-7.431 5.975-17.232 16.188-24.793 3.9-.117-7.805 20.99.404 11.038-10.369-8.476-4.729-13.878-13.608-18.606-20.265-7.09 1.885-13.221 6.594-18.99.735-3.786 4.12-4.303 8.691-11.829 8.783-9.694 4.21-10.266 18.967-24.173 15.876-7.19-2.349-16.364 3.187-15.459-6.7-15.073-3.629-3.358-19.625 1.272-27.496-.258-16.003 19.094-4.16 26.186-.312 12.055-4.017 4.75-18.865-2.907-23.323 2.547-10.25 12.919 3.134 14.063-5.298 1.87 1.095 13.004 2.146 8.136-.301-4.994-3.707-22.915 2.554-18.775-6.62 7.588-1.057-1.38-7.123 7.334-7.951-4.711-1.231-15.784 6.18-19.56-2.042 1.734-9.29 13.828-21.984 21.542-10.713 2.711 5.424-9.318 14.412 1.947 8.422 5.113-1.562-2.418-7.31-.367-11.107-5.89-10.794 14.24-19.261 13.188-7.483 6.2 5.057-8.015 8.428-.18 12.29.384 6.5 1.549 12.347 4.344 17.305-8.438 7.803 7.745 3.97 6.01-2.764 5.766-.387 16.63-.126 12.777-9.391-1.814-8.798 11.623-9.685 11.724-12.005-4.55 1.889-19.912 2.026-14.955-9.172-2.241-14.635 13.039-15.8 20.591-24.33 4.53-10.367 12.791-18.314 21.414-25.463 5.024-7.165 13.717-4.945 18.633 1.176 7.617 4.05 21.45.345 24.312 11.554 6.132-1.66-9.795-10.174 1.483-12.62 8.494-2.62 7.86 12.372 8.702 1.298 2.793-7.497 15.217-8.076 15.176-17.532 9.49-5.102 21.819 4.843 16.27 15.243-4.104 12.029 8.709 19.601 12.227 30.035 4.937 5.416.49 16.336 9.49 15.384 4.107 2.29 6.14 6.334 6.84 11.99 5.197 1.54 18.813 2.287 9.367 9.963-9.481 5.834-18.555 7.922-28.852 10.823-2.5 7.212-9.547 14.303.827 18.276 11.56 4.371-6.52 14 4.696 19.191 6.631 7.084 20.028 11.034 11.804 23.077-4.333 3.264-6.851-4.67-11.028 1.792-8.988 4.737-13.873-10.774-22.043-5.852-2.014-.483-2.217-10.677-9.412-9.296-6.875-2.187-11.5-7.746-16.484.571-9.867 6.842-8.966-12.92-15.42-8.153-2.935 8.289-12.443 18.011-3.165 24.33-.043 8.263-13.177 7.244-16.8 6.499-2.226 4.468-7.686 3.373-3.094 9.55 1.245 4.67 1.21 14.23-6.517 10.877zm-13.824-23.655c-1.21-7.538-13.518-9.49-16.948-16.943-3.389-1.402-4.83-8.322-4.482-.378 4.968 8.766 13.429 14.49 21.361 19.7zm60.325-29.911c7.19 2.335 5.468-7.12.225-1.42-1.748.324-3.128 3.135-.225 1.42zm-68.694-37.049c7.46-.751 17.76-.359 14.35-11.135 4.253-4.107-3.114-9.274 4.646-13.547-8.434-.235-3.091-17.387-6.481-14.521-12.57 5.349 7.53 15.788-5.472 21.748-.926 8.394-7.926 17.054-15.716 15.641-6.834 1.878 3.861 2.198 5.151 4.555 1.096-1.008 2.236-1.978 3.522-2.74zm-11.036-9.192c1.127-5.713-2.697.5 0 0zm33.53-7.586c-.666.296-.31.07 0 0zm-.536-6.895c-.812-1.687-1.027 1.332 0 0zm10.397-2.434c5.816-4.786-8.315 2.584 0 0zm-14.455-19.855c6.432-6.044-.117-8.422-1.038-.796-.914 2.67-1.272 4.785 1.038.796zm32.006-9.333c10.435.445.884-4.666-4.399-3.16.43 1.036 1.926 7.102 4.4 3.16zM87.28 184.08c-2.44-7.187.549-16.567 5.354-21.63 9.378-.206-.431 10.313 3.702 15.45-.339 4.16-4.71 9.007-9.056 6.18zM50.698 45.4c-13.642-2.935-8.122-24.719 5.47-16.314 13.27-.651 14.889 18.82.618 16.476-2.03-.008-4.063-.014-6.088-.162z" style="fill:#000;fill-opacity:.05;stroke-width:.26458299" transform="translate(15.647) scale(.85701)"/></svg>