<svg xmlns="http://www.w3.org/2000/svg" viewBox="0 0 270.933 270.933" height="1024" width="1024"><path style="fill:none;stroke:#69ae23;stroke-width:1.83934999;stroke-linecap:butt;stroke-linejoin:miter;stroke-miterlimit:10;stroke-dasharray:none;stroke-opacity:1" d="m207.49 72.554-.834-3.08a1.19 1.19 0 0 0-1.974-.545l-3.266 3.15a5.577 5.577 0 0 1-3.872 1.564h-3.005a3.218 3.218 0 0 1-2.974-1.987l-14.16-34.186a3.218 3.218 0 0 1 .698-3.508l2.125-2.124a5.577 5.577 0 0 1 3.844-1.634l4.536-.08a1.189 1.189 0 0 0 1.01-1.781l-1.588-2.768a12.851 12.851 0 0 0-4.75-4.75l-2.767-1.587a1.189 1.189 0 0 0-1.78 1.01l-.082 4.536a5.58 5.58 0 0 1-1.633 3.844l-2.124 2.125a3.219 3.219 0 0 1-3.509.698L137.2 17.291a3.218 3.218 0 0 1-1.987-2.974v-3.005c0-1.445.56-2.833 1.564-3.873l3.15-3.265a1.189 1.189 0 0 0-.544-1.974l-3.081-.834a12.854 12.854 0 0 0-6.717 0l-3.079.834a1.189 1.189 0 0 0-.545 1.974l3.15 3.264a5.579 5.579 0 0 1 1.564 3.874v3.005a3.219 3.219 0 0 1-1.987 2.974L94.501 31.45a3.22 3.22 0 0 1-3.508-.697l-2.125-2.126a5.575 5.575 0 0 1-1.632-3.842l-.082-4.539a1.189 1.189 0 0 0-1.78-1.01l-2.768 1.589a12.847 12.847 0 0 0-4.749 4.748l-1.589 2.769a1.189 1.189 0 0 0 1.01 1.78l4.537.081a5.578 5.578 0 0 1 3.844 1.633l2.125 2.125a3.217 3.217 0 0 1 .698 3.508l-14.16 34.186a3.22 3.22 0 0 1-2.974 1.987h-3.006a5.578 5.578 0 0 1-3.872-1.563l-3.266-3.15a1.19 1.19 0 0 0-1.973.544l-.834 3.08a12.85 12.85 0 0 0 0 6.716l.834 3.08a1.19 1.19 0 0 0 1.973.546l3.266-3.15a5.578 5.578 0 0 1 3.872-1.564h3.006a3.22 3.22 0 0 1 2.974 1.986l14.16 34.187a3.218 3.218 0 0 1-.698 3.508l-2.125 2.125a5.578 5.578 0 0 1-3.844 1.632l-4.536.082a1.189 1.189 0 0 0-1.01 1.78l1.588 2.769a12.85 12.85 0 0 0 4.749 4.748l2.767 1.589a1.19 1.19 0 0 0 1.781-1.01l.082-4.539a5.576 5.576 0 0 1 1.632-3.842l2.125-2.126a3.22 3.22 0 0 1 3.508-.697l34.186 14.16a3.22 3.22 0 0 1 1.987 2.974v3.007a5.57 5.57 0 0 1-1.563 3.87l-3.15 3.266a1.19 1.19 0 0 0 .544 1.974l3.08.833c2.199.596 4.517.596 6.716 0l3.08-.833a1.19 1.19 0 0 0 .546-1.974l-3.151-3.265a5.577 5.577 0 0 1-1.564-3.873v-3.005a3.22 3.22 0 0 1 1.987-2.974l34.186-14.16a3.22 3.22 0 0 1 3.508.698l2.125 2.125a5.58 5.58 0 0 1 1.633 3.844l.081 4.537a1.19 1.19 0 0 0 1.781 1.01L183.28 131a12.855 12.855 0 0 0 4.75-4.75l1.588-2.768a1.189 1.189 0 0 0-1.01-1.78l-4.536-.082a5.576 5.576 0 0 1-3.844-1.632l-2.125-2.125a3.218 3.218 0 0 1-.698-3.508l14.16-34.187a3.218 3.218 0 0 1 2.974-1.986h3.005a5.58 5.58 0 0 1 3.873 1.563l3.265 3.151a1.19 1.19 0 0 0 1.974-.545l.834-3.08a12.858 12.858 0 0 0 0-6.717z" transform="translate(15.647) scale(.85701)"/><path style="fill:none;fill-opacity:1;fill-rule:nonzero;stroke:none;stroke-width:.0347108" d="M162.942 59.26a8.692 8.692 0 0 0 2.656 6.258l-12.826 18.05a10.794 10.794 0 0 0-5.165-1.309c-2.475 0-4.759.833-6.588 2.236l-5.918-6.04a13.235 13.235 0 0 0 3.107-8.539c0-7.345-5.978-13.318-13.322-13.318-7.342 0-13.319 5.973-13.319 13.318 0 2.746.837 5.3 2.267 7.425l-9.5 7.855a10.892 10.892 0 0 0-7.505-2.996c-6.022 0-10.92 4.898-10.92 10.92v.056l-6.64-16.033a3.216 3.216 0 0 1 0-2.461l14.85-35.853a3.223 3.223 0 0 1 1.742-1.742l35.849-14.85a3.225 3.225 0 0 1 2.464 0l35.853 14.85a3.234 3.234 0 0 1 1.742 1.742l5.797 14a8.69 8.69 0 0 0-5.894-2.299c-4.814 0-8.73 3.916-8.73 8.73" transform="translate(15.647) scale(.85701)"/><path style="fill:none;stroke:#69ae23;stroke-width:1.83934999;stroke-linecap:butt;stroke-linejoin:miter;stroke-miterlimit:10;stroke-dasharray:none;stroke-opacity:1" d="M162.942 59.26a8.692 8.692 0 0 0 2.656 6.258l-12.826 18.05a10.794 10.794 0 0 0-5.165-1.309c-2.475 0-4.759.833-6.588 2.236l-5.918-6.04a13.235 13.235 0 0 0 3.107-8.539c0-7.345-5.978-13.318-13.322-13.318-7.342 0-13.319 5.973-13.319 13.318 0 2.746.837 5.3 2.267 7.425l-9.5 7.855a10.892 10.892 0 0 0-7.505-2.996c-6.022 0-10.92 4.898-10.92 10.92v.056l-6.64-16.033a3.216 3.216 0 0 1 0-2.461l14.85-35.853a3.223 3.223 0 0 1 1.742-1.742l35.849-14.85a3.225 3.225 0 0 1 2.464 0l35.853 14.85a3.234 3.234 0 0 1 1.742 1.742l5.797 14a8.69 8.69 0 0 0-5.894-2.299c-4.814 0-8.73 3.916-8.73 8.73z" transform="translate(15.647) scale(.85701)"/><path style="fill:#69ae23;fill-opacity:1;fill-rule:nonzero;stroke:none;stroke-width:.0347108" d="m186.619 77.143-14.85 35.853a3.246 3.246 0 0 1-1.742 1.742l-35.853 14.85a3.225 3.225 0 0 1-2.464 0l-35.85-14.85a3.235 3.235 0 0 1-1.742-1.742l-5.05-12.201a10.882 10.882 0 0 0 7.761 3.245c6.019 0 10.917-4.897 10.917-10.92a10.88 10.88 0 0 0-1.726-5.887l9.5-7.858a13.26 13.26 0 0 0 9.366 3.86c3.144 0 6.043-1.097 8.323-2.926l5.918 6.04a10.795 10.795 0 0 0-2.38 6.771c0 5.988 4.873 10.861 10.86 10.861 5.991 0 10.861-4.873 10.861-10.86 0-3.17-1.364-6.03-3.54-8.015l12.825-18.053c1.18.597 2.51.933 3.92.933 4.682 0 8.517-3.71 8.715-8.344l6.23 15.04a3.216 3.216 0 0 1 0 2.461" transform="translate(15.647) scale(.85701)"/><path style="fill:#69ae23;fill-opacity:1;fill-rule:nonzero;stroke:none;stroke-width:.0347108" d="M177.754 59.26a6.088 6.088 0 0 1-8.446 5.606 6.002 6.002 0 0 1-1.155-.653 5.615 5.615 0 0 1-.997-.885 6.026 6.026 0 0 1-1.569-4.068 6.09 6.09 0 0 1 6.085-6.085 6.08 6.08 0 0 1 5.377 3.25 6.01 6.01 0 0 1 .705 2.835m-21.927 33.86c0 4.53-3.687 8.216-8.22 8.216-4.53 0-8.216-3.686-8.216-8.216a8.17 8.17 0 0 1 2.472-5.866c.316-.312.66-.597 1.024-.85a8.136 8.136 0 0 1 4.72-1.5c1.298 0 2.527.302 3.62.84.4.195.778.424 1.136.684.364.25.704.538 1.02.85a8.207 8.207 0 0 1 2.444 5.842m-20.264-23.204c0 2.506-.868 4.815-2.322 6.637a9.64 9.64 0 0 1-.893.986 10.635 10.635 0 0 1-7.463 3.051 10.635 10.635 0 0 1-7.313-2.909 10.293 10.293 0 0 1-1.687-2.038 10.596 10.596 0 0 1-1.673-5.727c0-5.887 4.79-10.677 10.674-10.677 5.887 0 10.677 4.79 10.677 10.677M105.104 93.12c0 4.561-3.714 8.275-8.275 8.275a8.258 8.258 0 0 1-6.373-3.002 8.226 8.226 0 0 1-1.902-5.273c0-4.56 3.71-8.275 8.275-8.275 2.083 0 3.988.778 5.446 2.052.333.291.646.61.93.95.281.341.535.705.76 1.087a8.237 8.237 0 0 1 1.139 4.186" transform="translate(15.647) scale(.85701)"/><path d="M144.561 198.738c-8.147-2.273-6.71-17.107-14.331-16.732-3.967 1.528-6.333-.36-3.653 4.35-7.431 5.975-17.232 16.188-24.793 3.9-.117-7.805 20.99.404 11.038-10.369-8.476-4.729-13.878-13.608-18.606-20.265-7.09 1.885-13.221 6.594-18.99.735-3.786 4.12-4.303 8.691-11.829 8.783-9.694 4.21-10.266 18.967-24.173 15.876-7.19-2.349-16.364 3.187-15.459-6.7-15.073-3.629-3.358-19.625 1.272-27.496-.258-16.003 19.094-4.16 26.186-.312 12.055-4.017 4.75-18.865-2.907-23.323 2.547-10.25 12.919 3.134 14.063-5.298 1.87 1.095 13.004 2.146 8.136-.301-4.994-3.707-22.915 2.554-18.775-6.62 7.588-1.057-1.38-7.123 7.334-7.951-4.711-1.231-15.784 6.18-19.56-2.042 1.734-9.29 13.828-21.984 21.542-10.713 2.711 5.424-9.318 14.412 1.947 8.422 5.113-1.562-2.418-7.31-.367-11.107-5.89-10.794 14.24-19.261 13.188-7.483 6.2 5.057-8.015 8.428-.18 12.29.384 6.5 1.549 12.347 4.344 17.305-8.438 7.803 7.745 3.97 6.01-2.764 5.766-.387 16.63-.126 12.777-9.391-1.814-8.798 11.623-9.685 11.724-12.005-4.55 1.889-19.912 2.026-14.955-9.172-2.241-14.635 13.039-15.8 20.591-24.33 4.53-10.367 12.791-18.314 21.414-25.463 5.024-7.165 13.717-4.945 18.633 1.176 7.617 4.05 21.45.345 24.312 11.554 6.132-1.66-9.795-10.174 1.483-12.62 8.494-2.62 7.86 12.372 8.702 1.298 2.793-7.497 15.217-8.076 15.176-17.532 9.49-5.102 21.819 4.843 16.27 15.243-4.104 12.029 8.709 19.601 12.227 30.035 4.937 5.416.49 16.336 9.49 15.384 4.107 2.29 6.14 6.334 6.84 11.99 5.197 1.54 18.813 2.287 9.367 9.963-9.481 5.834-18.555 7.922-28.852 10.823-2.5 7.212-9.547 14.303.827 18.276 11.56 4.371-6.52 14 4.696 19.191 6.631 7.084 20.028 11.034 11.804 23.077-4.333 3.264-6.851-4.67-11.028 1.792-8.988 4.737-13.873-10.774-22.043-5.852-2.014-.483-2.217-10.677-9.412-9.296-6.875-2.187-11.5-7.746-16.484.571-9.867 6.842-8.966-12.92-15.42-8.153-2.935 8.289-12.443 18.011-3.165 24.33-.043 8.263-13.177 7.244-16.8 6.499-2.226 4.468-7.686 3.373-3.094 9.55 1.245 4.67 1.21 14.23-6.517 10.877zm-13.824-23.655c-1.21-7.538-13.518-9.49-16.948-16.943-3.389-1.402-4.83-8.322-4.482-.378 4.968 8.766 13.429 14.49 21.361 19.7zm60.325-29.911c7.19 2.335 5.468-7.12.225-1.42-1.748.324-3.128 3.135-.225 1.42zm-68.694-37.049c7.46-.751 17.76-.359 14.35-11.135 4.253-4.107-3.114-9.274 4.646-13.547-8.434-.235-3.091-17.387-6.481-14.521-12.57 5.349 7.53 15.788-5.472 21.748-.926 8.394-7.926 17.054-15.716 15.641-6.834 1.878 3.861 2.198 5.151 4.555 1.096-1.008 2.236-1.978 3.522-2.74zm-11.036-9.192c1.127-5.713-2.697.5 0 0zm33.53-7.586c-.666.296-.31.07 0 0zm-.536-6.895c-.812-1.687-1.027 1.332 0 0zm10.397-2.434c5.816-4.786-8.315 2.584 0 0zm-14.455-19.855c6.432-6.044-.117-8.422-1.038-.796-.914 2.67-1.272 4.785 1.038.796zm32.006-9.333c10.435.445.884-4.666-4.399-3.16.43 1.036 1.926 7.102 4.4 3.16zM87.28 184.08c-2.44-7.187.549-16.567 5.354-21.63 9.378-.206-.431 10.313 3.702 15.45-.339 4.16-4.71 9.007-9.056 6.18zM50.698 45.4c-13.642-2.935-8.122-24.719 5.47-16.314 13.27-.651 14.889 18.82.618 16.476-2.03-.008-4.063-.014-6.088-.162z" style="fill:#000;fill-opacity:.05;stroke-width:.26458299" transform="translate(15.647) scale(.85701)"/><text xml:space="preserve" style="font-style:normal;font-variant:normal;font-weight:400;font-stretch:normal;font-size:10.58332062px;line-height:1.25;font-family:'Avenir Next';-inkscape-font-specification:'Avenir Next';letter-spacing:0;word-spacing:0;fill:#003a80;fill-opacity:1;stroke:none;stroke-width:.26458302" x="60.466" y="150.837"><tspan x="60.466" y="150.837" style="font-style:normal;font-variant:normal;font-weight:400;font-stretch:normal;font-size:16.22775841px;line-height:1;font-family:Roboto;-inkscape-font-specification:Roboto;fill:#003a80;fill-opacity:1;stroke-width:.26458302"><tspan style="font-style:normal;font-variant:normal;font-weight:700;font-stretch:normal;font-size:16.22775841px;font-family:Roboto;-inkscape-font-specification:'Roboto Bold'">European</tspan>COVID-19</tspan><tspan x="60.466" y="173.762" style="font-style:normal;font-variant:normal;font-weight:400;font-stretch:normal;font-size:23.98885918px;line-height:1;font-family:Roboto;-inkscape-font-specification:Roboto;fill:#003a80;fill-opacity:1;stroke-width:.26458302"><tspan style="font-style:normal;font-variant:normal;font-weight:900;font-stretch:normal;font-size:23.98885918px;font-family:Roboto;-inkscape-font-specification:'Roboto Heavy'">Forecast</tspan>Hub</tspan></text></svg>